<svg xmlns="http://www.w3.org/2000/svg" xmlns:xlink="http://www.w3.org/1999/xlink" version="1.1" id="Layer_1" x="0px" y="0px" viewBox="0 0 135 151" style="enable-background:new 0 0 135 151;" xml:space="preserve">
<style type="text/css">
	.st0{filter:url(#Adobe_OpacityMaskFilter);}
	.st1{fill-rule:evenodd;clip-rule:evenodd;fill:#FFFFFF;}
	.st2{mask:url(#mask-2_00000089561493905563751580000006962389702326587559_);fill-rule:evenodd;clip-rule:evenodd;fill:#FF5100;}
	.st3{filter:url(#Adobe_OpacityMaskFilter_00000154409759116986910010000003409870854212508545_);}
	.st4{mask:url(#mask-4_00000167395666109747767970000015947342554875649670_);fill-rule:evenodd;clip-rule:evenodd;fill:#FF5100;}
</style>
<g id="Artboard-Copy">
	<g id="Group-23" transform="translate(0, 0)">
		<g id="Group-11" transform="translate(124.4273, 0)">
			<g id="Clip-10">
			</g>
			<defs>
				<filter id="Adobe_OpacityMaskFilter" filterUnits="userSpaceOnUse" x="0" y="0" width="9.8" height="9.6">
					<feColorMatrix type="matrix" values="1 0 0 0 0  0 1 0 0 0  0 0 1 0 0  0 0 0 1 0"/>
				</filter>
			</defs>
			
				<mask maskUnits="userSpaceOnUse" x="0" y="0" width="9.8" height="9.6" id="mask-2_00000089561493905563751580000006962389702326587559_">
				<g class="st0">
					<polygon id="path-1_00000004542426778945767290000006377033406213393853_" class="st1" points="0,0 445,0 445,9.6 0,9.6             "/>
				</g>
			</mask>
			<path id="Fill-9" class="st2" d="M4.9,9.6c3.1,0,5.5-2.7,4.8-5.8C9.3,2,7.9,0.6,6.2,0.2C3-0.7,0,1.7,0,4.8C0,7.4,2.2,9.6,4.9,9.6     L4.9,9.6z M4.9,8.7c-2.6,0-4.7-2.5-3.8-5.1c0.4-1.2,1.3-2.1,2.5-2.5c2.7-0.9,5.3,1.2,5.3,3.7C8.9,6.9,7.1,8.7,4.9,8.7L4.9,8.7z      M3.3,7.2h0.9l0-2h0.3l1.3,1.9H7l-1.4-2C6.3,5,6.7,4.5,6.7,3.8c0-0.8-0.6-1.4-1.5-1.4H3.3V7.2z M4.2,4.5l0-1.4h0.8     c0.4,0,0.7,0.2,0.7,0.6c0,0.4-0.2,0.7-0.6,0.7L4.2,4.5z"/>
		</g>
		<g id="Group-22" transform="translate(0, 0.875)">
			<g id="Clip-21">
			</g>
			<defs>
				
					<filter id="Adobe_OpacityMaskFilter_00000100364162292100687340000004576992491672540583_" filterUnits="userSpaceOnUse" x="0" y="0" width="117.1" height="150.4">
					<feColorMatrix type="matrix" values="1 0 0 0 0  0 1 0 0 0  0 0 1 0 0  0 0 0 1 0"/>
				</filter>
			</defs>
			
				<mask maskUnits="userSpaceOnUse" x="0" y="0" width="117.1" height="150.4" id="mask-4_00000167395666109747767970000015947342554875649670_">
				<g style="filter:url(#Adobe_OpacityMaskFilter_00000100364162292100687340000004576992491672540583_);">
					<polygon id="path-3_00000063616896288057852980000011807728569891921585_" class="st1" points="0,0 117.1,0 117.1,150.4        0,150.4      "/>
				</g>
			</mask>
			<path id="Fill-20" class="st4" d="M45.3,150.4h71.8v-43H77.4c-17.8,0-32.2-14.8-32.2-32.1c0-17.3,14.4-32.1,32.2-32.1h39.7V0     H45.3L0,43.9v62.6L45.3,150.4z"/>
		</g>
	</g>
</g>
</svg>