<svg xmlns="http://www.w3.org/2000/svg" xmlns:xlink="http://www.w3.org/1999/xlink" width="495px" height="131px" viewBox="0 0 495 131" version="1.1">
    <!-- Generator: Sketch 57.1 (83088) - https://sketch.com -->
    <title>Cromwell Logo</title>
    <desc>Copyright: Cromwell Group (Holdings) Ltd </desc>
    <defs>
        <polygon id="path-1" points="0.0806468085 0.137164516 7.64306383 0.137164516 7.64306383 7.69713226 0.0806468085 7.69713226"/>
    </defs>
    <g id="Page-1" stroke="none" stroke-width="1" fill="none" fill-rule="evenodd">
        <g id="Desktop-HD" transform="translate(-1.000000, 0.000000)">
            <g id="Group-22" transform="translate(1.000000, 0.000000)">
                <g id="Group-9" transform="translate(224.000000, 16.000000)" fill="#FF5100">
                    <path d="M189.5098,19.4894737 C189.5098,30.5821053 197.715689,38.46 208.837022,38.46 C216.519356,38.46 222.225689,35.1757895 225.519022,29.9968421 L219.371467,25.6178947 C217.469356,28.8305263 214.030356,30.5884211 208.906689,30.7042105 C203.274244,30.8326316 198.467244,27.6852632 198.099911,21.7 L221.3918,21.7526316 L226.507022,16.6157895 C226.507022,7.44526316 218.5418,0.518947368 208.3768,0.518947368 C197.255467,0.518947368 189.5098,8.76315789 189.5098,19.4894737 M208.543578,7.53368421 C213.223911,7.53368421 217.007022,9.92105263 217.885244,15.1736842 L198.467244,15.1736842 C199.565022,9.77578947 203.861133,7.53368421 208.543578,7.53368421" id="Fill-1"/>
                    <path d="M64.2905111,19.4894737 C64.2905111,8.91263158 55.8460667,0.518947368 44.8872889,0.518947368 C33.9221778,0.518947368 25.4777333,8.91263158 25.4777333,19.4894737 C25.4777333,30.0684211 33.9221778,38.46 44.8872889,38.46 C55.8460667,38.46 64.2905111,30.0684211 64.2905111,19.4894737 M33.9306222,19.4894737 C33.9306222,12.9947368 38.2942889,8.19052632 44.8872889,8.19052632 C51.4042889,8.19052632 55.7658444,12.9947368 55.7658444,19.4894737 C55.7658444,25.9842105 51.4042889,30.7884211 44.8872889,30.7884211 C38.2942889,30.7884211 33.9306222,25.9842105 33.9306222,19.4894737" id="Fill-3"/>
                    <path d="M0.878855556,8.35242105 L0.918966667,37.7903158 L9.32118889,37.7903158 L9.35707778,16.9734737 C9.35707778,11.6892632 10.8644111,8.61768421 17.8585222,8.61347368 C18.9415222,8.61136842 22.8259667,8.61978947 22.8259667,8.61978947 L22.8259667,1.29768421 L8.42396667,1.29768421 L0.878855556,8.35242105 Z" id="Fill-5"/>
                    <path d="M116.818756,1.29852632 L102.135978,1.29852632 L96.8455333,6.57431579 L91.4389778,1.29852632 L76.8870889,1.29852632 L69.9330889,8.36168421 L69.9330889,37.7911579 L78.4092,37.7511579 L78.4092,15.8816842 C78.4092,13.2648421 79.0974222,8.54484211 85.4202,8.58905263 C91.7049778,8.63536842 92.6296444,13.3027368 92.6296444,15.9237895 L92.6296444,37.7911579 L101.105756,37.7911579 L101.105756,15.9237895 C101.105756,13.3027368 101.924867,8.56168421 108.205422,8.56168421 C114.678089,8.56168421 115.2882,13.1701053 115.2882,15.7890526 L115.2882,37.6585263 L123.757978,37.7448421 L123.757978,8.36168421 L116.818756,1.29852632 Z" id="Fill-7"/>
                </g>
                <polygon id="Fill-10" fill="#FF5100" points="457 1.00851132 457.025942 53.9978722 465 54 465 1"/>
                <path d="M217.959678,9.72836037 L217.976656,1 L194.50068,1 L179,16.4778384 L179,38.5434399 L194.50068,54 L217.976656,54 L218,45.3248354 L206.166512,45.3248354 C197.236219,45.3248354 188.006693,39.3328649 188.059749,27.4340373 C188.112804,15.7884214 196.735376,9.72623254 206.092235,9.72623254 L217.959678,9.72836037" id="Fill-11" fill="#FF5100"/>
                <polygon id="Fill-13" fill="#FF5100" points="390.293191 54 382.494716 30.0927347 374.436293 54 365.784003 54 353 17 361.791776 17 370.790665 43.7043107 379.007594 17 385.791632 17 394.105778 43.708581 403.134255 17 412 17 398.909553 54"/>
                <polygon id="Fill-14" fill="#FF5100" points="473 1.00851132 473.025942 53.9978722 481 54 481 1"/>
                <g id="Group-20">
                    <g id="Group-17" transform="translate(486.446809, 1.000000)">
                        <mask id="mask-2" fill="white">
                            <use xlink:href="#path-1"/>
                        </mask>
                        <g id="Clip-16"/>
                        <path d="M3.85657872,7.69713226 C5.93555745,7.69713226 7.64306383,5.99835806 7.64306383,3.91714839 C7.64306383,1.83805161 5.93555745,0.137164516 3.85657872,0.137164516 C1.78815319,0.137164516 0.0806468085,1.83805161 0.0806468085,3.91714839 C0.0806468085,5.99835806 1.78815319,7.69713226 3.85657872,7.69713226 L3.85657872,7.69713226 Z M3.85657872,7.01043871 C2.16806809,7.01043871 0.768714894,5.61803548 0.768714894,3.91714839 C0.768714894,2.21626129 2.16806809,0.823858065 3.85657872,0.823858065 C5.55564255,0.823858065 6.95499574,2.21626129 6.95499574,3.91714839 C6.95499574,5.61803548 5.55564255,7.01043871 3.85657872,7.01043871 L3.85657872,7.01043871 Z M2.65351489,5.83355161 L3.34158298,5.83355161 L3.35002553,4.29113226 L3.6075234,4.29113226 L4.63329362,5.8229871 L5.46699574,5.8229871 L4.4011234,4.22774516 C4.93511489,4.09674516 5.25171064,3.7269871 5.23482553,3.10156774 C5.21794043,2.46347097 4.7810383,1.99229355 4.06342128,1.99229355 L2.65351489,1.99229355 L2.65351489,5.83355161 Z M3.35002553,3.69318065 L3.34158298,2.63039032 L3.98954894,2.63039032 C4.33147234,2.63039032 4.54886809,2.80153548 4.54886809,3.13537419 C4.54886809,3.43118065 4.41800851,3.69106774 4.07397447,3.69529355 L3.35002553,3.69318065 Z" id="Fill-15" fill="#FF5100" mask="url(#mask-2)"/>
                    </g>
                    <path d="M39.3235132,131 L101.656994,131 L101.656994,93.578371 L67.2388153,93.578371 C51.8227132,93.578371 39.3235132,80.6875484 39.3235132,65.6648065 C39.3235132,50.6272742 51.8227132,37.7343387 67.2388153,37.7343387 L67.240926,37.7343387 L101.656994,37.7343387 L101.656994,0.264112903 L39.3235132,0.264112903 L0.00021106383,38.4442742 L0.00021106383,92.8684355 L39.3235132,131 Z" id="Fill-18" fill="#FF5100"/>
                </g>
                <path d="M118.855617,0 L117.102057,3.41461568 L117.084652,3.41461568 L115.320214,0 L114.175831,0 L114.175831,6 L115.302809,6 L115.302809,2.27186672 L115.318038,2.27186672 L116.71697,4.86406664 L117.456685,4.86406664 L118.859968,2.27186672 L118.870847,2.27186672 L118.870847,6 L120,6 L120,0 L118.855617,0 Z M109,0 L109,1.06323362 L110.583861,1.06323362 L110.583861,6 L111.719541,6 L111.719541,1.06323362 L113.309929,1.06323362 L113.309929,0 L109,0 Z" id="Fill-21" fill="#FF5100"/>
            </g>
        </g>
    </g>
</svg>